<svg width="36" height="36" viewBox="0 0 36 36" fill="none" xmlns="http://www.w3.org/2000/svg">
<path d="M28.5 25.5V28.5H10.5V25.5C10.5 25.5 10.5 19.5 19.5 19.5C28.5 19.5 28.5 25.5 28.5 25.5ZM24 12C24 11.11 23.7361 10.24 23.2416 9.49994C22.7471 8.75991 22.0443 8.18314 21.2221 7.84254C20.3998 7.50195 19.495 7.41283 18.6221 7.58647C17.7492 7.7601 16.9474 8.18868 16.318 8.81802C15.6887 9.44736 15.2601 10.2492 15.0865 11.1221C14.9128 11.995 15.0019 12.8998 15.3425 13.7221C15.6831 14.5443 16.2599 15.2471 16.9999 15.7416C17.74 16.2361 18.61 16.5 19.5 16.5C20.6935 16.5 21.8381 16.0259 22.682 15.182C23.5259 14.3381 24 13.1935 24 12ZM28.8 19.59C29.6199 20.3465 30.281 21.2587 30.7446 22.2734C31.2081 23.2881 31.465 24.385 31.5 25.5V28.5H36V25.5C36 25.5 36 20.325 28.8 19.59ZM27 7.5C26.5468 7.50027 26.0964 7.57112 25.665 7.71C26.5426 8.96846 27.0131 10.4658 27.0131 12C27.0131 13.5342 26.5426 15.0315 25.665 16.29C26.0964 16.4289 26.5468 16.4997 27 16.5C28.1935 16.5 29.3381 16.0259 30.182 15.182C31.0259 14.3381 31.5 13.1935 31.5 12C31.5 10.8065 31.0259 9.66194 30.182 8.81802C29.3381 7.97411 28.1935 7.5 27 7.5Z" fill="#F1F1F1" fill-opacity="0.7"/>
<path d="M0.292892 9.30754C0.480429 9.11062 0.734784 9 1 9H11C11.2652 9 11.5196 9.11062 11.7071 9.30754C11.8946 9.50445 12 9.77152 12 10.05C12 10.3285 11.8946 10.5955 11.7071 10.7925C11.5196 10.9894 11.2652 11.1 11 11.1H1C0.734784 11.1 0.480429 10.9894 0.292892 10.7925C0.105356 10.5955 0 10.3285 0 10.05C0 9.77152 0.105356 9.50445 0.292892 9.30754Z" fill="#F1F1F1" fill-opacity="0.7"/>
<path d="M0.292892 13.5075C0.480429 13.3106 0.734784 13.2 1 13.2H11C11.2652 13.2 11.5196 13.3106 11.7071 13.5075C11.8946 13.7045 12 13.9715 12 14.25C12 14.5285 11.8946 14.7955 11.7071 14.9925C11.5196 15.1894 11.2652 15.3 11 15.3H1C0.734784 15.3 0.480429 15.1894 0.292892 14.9925C0.105356 14.7955 0 14.5285 0 14.25C0 13.9715 0.105356 13.7045 0.292892 13.5075Z" fill="#F1F1F1" fill-opacity="0.7"/>
<path d="M0.292892 17.7075C0.480429 17.5106 0.734784 17.4 1 17.4H11C11.2652 17.4 11.5196 17.5106 11.7071 17.7075C11.8946 17.9044 12 18.1715 12 18.45C12 18.7285 11.8946 18.9955 11.7071 19.1925C11.5196 19.3894 11.2652 19.5 11 19.5H1C0.734784 19.5 0.480429 19.3894 0.292892 19.1925C0.105356 18.9955 0 18.7285 0 18.45C0 18.1715 0.105356 17.9044 0.292892 17.7075Z" fill="#F1F1F1" fill-opacity="0.7"/>
</svg>
