<svg width="36" height="36" viewBox="0 0 36 36" fill="none" xmlns="http://www.w3.org/2000/svg">
<path d="M19.8035 4.2984C19.3079 3.85314 18.6652 3.60683 17.999 3.60683C17.3328 3.60683 16.6901 3.85314 16.1945 4.2984L6.2945 13.194C6.01302 13.4471 5.78792 13.7566 5.6338 14.1024C5.47968 14.4481 5.39999 14.8224 5.3999 15.201V27.9C5.3999 28.6161 5.68437 29.3028 6.19071 29.8092C6.69706 30.3155 7.38382 30.6 8.0999 30.6H11.6999C12.416 30.6 13.1027 30.3155 13.6091 29.8092C14.1154 29.3028 14.3999 28.6161 14.3999 27.9V20.7C14.3999 20.4613 14.4947 20.2324 14.6635 20.0636C14.8323 19.8948 15.0612 19.8 15.2999 19.8H20.6999C20.9386 19.8 21.1675 19.8948 21.3363 20.0636C21.5051 20.2324 21.5999 20.4613 21.5999 20.7V27.9C21.5999 28.6161 21.8844 29.3028 22.3907 29.8092C22.8971 30.3155 23.5838 30.6 24.2999 30.6H27.8999C28.616 30.6 29.3027 30.3155 29.8091 29.8092C30.3154 29.3028 30.5999 28.6161 30.5999 27.9V15.201C30.5998 14.8224 30.5201 14.4481 30.366 14.1024C30.2119 13.7566 29.9868 13.4471 29.7053 13.194L19.8053 4.2984H19.8035Z" fill="#F1F1F1"/>
</svg>
