<svg width="32" height="22" viewBox="0 0 32 22" fill="none" xmlns="http://www.w3.org/2000/svg">
<rect x="10" y="6" width="12" height="10.6667" fill="white"/>
<path d="M13.3332 15.3333L20.2532 11.3333L13.3332 7.33333V15.3333ZM28.7465 4.89333C28.9198 5.52 29.0398 6.36 29.1198 7.42667C29.2132 8.49333 29.2532 9.41333 29.2532 10.2133L29.3332 11.3333C29.3332 14.2533 29.1198 16.4 28.7465 17.7733C28.4132 18.9733 27.6398 19.7467 26.4398 20.08C25.8132 20.2533 24.6665 20.3733 22.9065 20.4533C21.1732 20.5467 19.5865 20.5867 18.1198 20.5867L15.9998 20.6667C10.4132 20.6667 6.93317 20.4533 5.55984 20.08C4.35984 19.7467 3.5865 18.9733 3.25317 17.7733C3.07984 17.1467 2.95984 16.3067 2.87984 15.24C2.7865 14.1733 2.7465 13.2533 2.7465 12.4533L2.6665 11.3333C2.6665 8.41333 2.87984 6.26667 3.25317 4.89333C3.5865 3.69333 4.35984 2.92 5.55984 2.58667C6.1865 2.41333 7.33317 2.29333 9.09317 2.21333C10.8265 2.12 12.4132 2.08 13.8798 2.08L15.9998 2C21.5865 2 25.0665 2.21333 26.4398 2.58667C27.6398 2.92 28.4132 3.69333 28.7465 4.89333Z" fill="#FF0000"/>
</svg>
