<svg width="32" height="32" viewBox="0 0 32 32" fill="none" xmlns="http://www.w3.org/2000/svg">
<path d="M15.6667 15.6667C18.6122 15.6667 21 13.2789 21 10.3333C21 7.38781 18.6122 5 15.6667 5C12.7212 5 10.3334 7.38781 10.3334 10.3333C10.3334 13.2789 12.7212 15.6667 15.6667 15.6667Z" fill="#1E1E1E"/>
<path d="M15.6667 15.6667C18.6122 15.6667 21 13.2789 21 10.3333C21 7.38781 18.6122 5 15.6667 5C12.7212 5 10.3334 7.38781 10.3334 10.3333C10.3334 13.2789 12.7212 15.6667 15.6667 15.6667Z" fill="#F1F1F1"/>
<path fill-rule="evenodd" clip-rule="evenodd" d="M15.6667 17C12.1067 17 5 18.7867 5 22.3333V25C5 25.7333 5.6 26.3333 6.33333 26.3333H25C25.7333 26.3333 26.3333 25.7333 26.3333 25V22.3333C26.3333 18.7867 19.2267 17 15.6667 17Z" fill="#1E1E1E"/>
<path fill-rule="evenodd" clip-rule="evenodd" d="M15.6667 17C12.1067 17 5 18.7867 5 22.3333V25C5 25.7333 5.6 26.3333 6.33333 26.3333H25C25.7333 26.3333 26.3333 25.7333 26.3333 25V22.3333C26.3333 18.7867 19.2267 17 15.6667 17Z" fill="#F1F1F1"/>
</svg>
