<svg width="32" height="32" viewBox="0 0 32 32" fill="none" xmlns="http://www.w3.org/2000/svg">
<path fill-rule="evenodd" clip-rule="evenodd" d="M22.2267 17.5068C24.0534 18.7468 25.3334 20.4268 25.3334 22.6668V26.6668H29.3334C30.0667 26.6668 30.6667 26.0668 30.6667 25.3335V22.6668C30.6667 19.7602 25.9067 18.0402 22.2267 17.5068Z" fill="#1E1E1E"/>
<path fill-rule="evenodd" clip-rule="evenodd" d="M22.2267 17.5068C24.0534 18.7468 25.3334 20.4268 25.3334 22.6668V26.6668H29.3334C30.0667 26.6668 30.6667 26.0668 30.6667 25.3335V22.6668C30.6667 19.7602 25.9067 18.0402 22.2267 17.5068Z" fill="#F1F1F1"/>
<path d="M12 16.0002C14.9455 16.0002 17.3333 13.6123 17.3333 10.6668C17.3333 7.72131 14.9455 5.3335 12 5.3335C9.05444 5.3335 6.66663 7.72131 6.66663 10.6668C6.66663 13.6123 9.05444 16.0002 12 16.0002Z" fill="#1E1E1E"/>
<path d="M12 16.0002C14.9455 16.0002 17.3333 13.6123 17.3333 10.6668C17.3333 7.72131 14.9455 5.3335 12 5.3335C9.05444 5.3335 6.66663 7.72131 6.66663 10.6668C6.66663 13.6123 9.05444 16.0002 12 16.0002Z" fill="#F1F1F1"/>
<path fill-rule="evenodd" clip-rule="evenodd" d="M20 16.0002C22.9467 16.0002 25.3334 13.6135 25.3334 10.6668C25.3334 7.72016 22.9467 5.3335 20 5.3335C19.3734 5.3335 18.7867 5.46683 18.2267 5.6535C19.3741 7.07245 20 8.84203 20 10.6668C20 12.4916 19.3741 14.2612 18.2267 15.6802C18.7867 15.8668 19.3734 16.0002 20 16.0002ZM12 17.3335C8.44004 17.3335 1.33337 19.1202 1.33337 22.6668V25.3335C1.33337 26.0668 1.93337 26.6668 2.66671 26.6668H21.3334C22.0667 26.6668 22.6667 26.0668 22.6667 25.3335V22.6668C22.6667 19.1202 15.56 17.3335 12 17.3335Z" fill="#1E1E1E"/>
<path fill-rule="evenodd" clip-rule="evenodd" d="M20 16.0002C22.9467 16.0002 25.3334 13.6135 25.3334 10.6668C25.3334 7.72016 22.9467 5.3335 20 5.3335C19.3734 5.3335 18.7867 5.46683 18.2267 5.6535C19.3741 7.07245 20 8.84203 20 10.6668C20 12.4916 19.3741 14.2612 18.2267 15.6802C18.7867 15.8668 19.3734 16.0002 20 16.0002ZM12 17.3335C8.44004 17.3335 1.33337 19.1202 1.33337 22.6668V25.3335C1.33337 26.0668 1.93337 26.6668 2.66671 26.6668H21.3334C22.0667 26.6668 22.6667 26.0668 22.6667 25.3335V22.6668C22.6667 19.1202 15.56 17.3335 12 17.3335Z" fill="#F1F1F1"/>
</svg>
