<svg width="32" height="32" viewBox="0 0 32 32" fill="none" xmlns="http://www.w3.org/2000/svg">
<path d="M17.603 3.82079C17.1625 3.425 16.5912 3.20605 15.999 3.20605C15.4068 3.20605 14.8355 3.425 14.395 3.82079L5.595 11.728C5.3448 11.953 5.14471 12.2281 5.00771 12.5354C4.87072 12.8428 4.79988 13.1755 4.7998 13.512V24.8C4.7998 25.4365 5.05266 26.047 5.50275 26.497C5.95284 26.9471 6.56329 27.2 7.1998 27.2H10.3998C11.0363 27.2 11.6468 26.9471 12.0969 26.497C12.5469 26.047 12.7998 25.4365 12.7998 24.8V18.4C12.7998 18.1878 12.8841 17.9843 13.0341 17.8343C13.1841 17.6843 13.3876 17.6 13.5998 17.6H18.3998C18.612 17.6 18.8155 17.6843 18.9655 17.8343C19.1155 17.9843 19.1998 18.1878 19.1998 18.4V24.8C19.1998 25.4365 19.4527 26.047 19.9027 26.497C20.3528 26.9471 20.9633 27.2 21.5998 27.2H24.7998C25.4363 27.2 26.0468 26.9471 26.4969 26.497C26.9469 26.047 27.1998 25.4365 27.1998 24.8V13.512C27.1997 13.1755 27.1289 12.8428 26.9919 12.5354C26.8549 12.2281 26.6548 11.953 26.4046 11.728L17.6046 3.82079H17.603Z" fill="#F1F1F1"/>
</svg>
