<svg width="32" height="32" viewBox="0 0 32 32" fill="none" xmlns="http://www.w3.org/2000/svg">
<path d="M17.4116 4.32079L17.2691 4.19272C16.9203 3.87939 16.4681 3.70605 15.9992 3.70605C15.5304 3.70605 15.0782 3.87938 14.7294 4.1927L17.4116 4.32079ZM17.4116 4.32079H17.4132L26.0705 12.0998C26.2686 12.2779 26.427 12.4957 26.5355 12.739C26.6439 12.9823 26.7 13.2456 26.7 13.512C26.7 13.512 26.7 13.5121 26.7 13.5121V24.8C26.7 25.3039 26.4999 25.7872 26.1436 26.1435C25.7872 26.4998 25.304 26.7 24.8 26.7H21.6C21.0961 26.7 20.6129 26.4998 20.2565 26.1435C19.9002 25.7872 19.7 25.3039 19.7 24.8V18.4C19.7 18.0552 19.5631 17.7245 19.3193 17.4807C19.0755 17.2369 18.7448 17.1 18.4 17.1H13.6C13.2553 17.1 12.9246 17.2369 12.6808 17.4807C12.437 17.7245 12.3 18.0552 12.3 18.4V24.8C12.3 25.3039 12.0999 25.7872 11.7436 26.1435C11.3872 26.4998 10.904 26.7 10.4 26.7H7.20005C6.69614 26.7 6.21287 26.4998 5.85655 26.1435C5.50023 25.7872 5.30005 25.3039 5.30005 24.8V13.5121C5.30005 13.5121 5.30005 13.512 5.30005 13.512C5.30013 13.2456 5.3562 12.9823 5.46464 12.739C5.57307 12.4957 5.73142 12.278 5.92943 12.0999C5.92948 12.0999 5.92953 12.0998 5.92958 12.0998L14.7294 4.19272L17.4116 4.32079Z" fill="#1E1E1E"/>
<path d="M17.4116 4.32079L17.2691 4.19272C16.9203 3.87939 16.4681 3.70605 15.9992 3.70605C15.5304 3.70605 15.0782 3.87938 14.7294 4.1927L17.4116 4.32079ZM17.4116 4.32079H17.4132L26.0705 12.0998C26.2686 12.2779 26.427 12.4957 26.5355 12.739C26.6439 12.9823 26.7 13.2456 26.7 13.512C26.7 13.512 26.7 13.5121 26.7 13.5121V24.8C26.7 25.3039 26.4999 25.7872 26.1436 26.1435C25.7872 26.4998 25.304 26.7 24.8 26.7H21.6C21.0961 26.7 20.6129 26.4998 20.2565 26.1435C19.9002 25.7872 19.7 25.3039 19.7 24.8V18.4C19.7 18.0552 19.5631 17.7245 19.3193 17.4807C19.0755 17.2369 18.7448 17.1 18.4 17.1H13.6C13.2553 17.1 12.9246 17.2369 12.6808 17.4807C12.437 17.7245 12.3 18.0552 12.3 18.4V24.8C12.3 25.3039 12.0999 25.7872 11.7436 26.1435C11.3872 26.4998 10.904 26.7 10.4 26.7H7.20005C6.69614 26.7 6.21287 26.4998 5.85655 26.1435C5.50023 25.7872 5.30005 25.3039 5.30005 24.8V13.5121C5.30005 13.5121 5.30005 13.512 5.30005 13.512C5.30013 13.2456 5.3562 12.9823 5.46464 12.739C5.57307 12.4957 5.73142 12.278 5.92943 12.0999C5.92948 12.0999 5.92953 12.0998 5.92958 12.0998L14.7294 4.19272L17.4116 4.32079Z" stroke="#1E1E1E"/>
<path d="M17.4116 4.32079L17.2691 4.19272C16.9203 3.87939 16.4681 3.70605 15.9992 3.70605C15.5304 3.70605 15.0782 3.87938 14.7294 4.1927L17.4116 4.32079ZM17.4116 4.32079H17.4132L26.0705 12.0998C26.2686 12.2779 26.427 12.4957 26.5355 12.739C26.6439 12.9823 26.7 13.2456 26.7 13.512C26.7 13.512 26.7 13.5121 26.7 13.5121V24.8C26.7 25.3039 26.4999 25.7872 26.1436 26.1435C25.7872 26.4998 25.304 26.7 24.8 26.7H21.6C21.0961 26.7 20.6129 26.4998 20.2565 26.1435C19.9002 25.7872 19.7 25.3039 19.7 24.8V18.4C19.7 18.0552 19.5631 17.7245 19.3193 17.4807C19.0755 17.2369 18.7448 17.1 18.4 17.1H13.6C13.2553 17.1 12.9246 17.2369 12.6808 17.4807C12.437 17.7245 12.3 18.0552 12.3 18.4V24.8C12.3 25.3039 12.0999 25.7872 11.7436 26.1435C11.3872 26.4998 10.904 26.7 10.4 26.7H7.20005C6.69614 26.7 6.21287 26.4998 5.85655 26.1435C5.50023 25.7872 5.30005 25.3039 5.30005 24.8V13.5121C5.30005 13.5121 5.30005 13.512 5.30005 13.512C5.30013 13.2456 5.3562 12.9823 5.46464 12.739C5.57307 12.4957 5.73142 12.278 5.92943 12.0999C5.92948 12.0999 5.92953 12.0998 5.92958 12.0998L14.7294 4.19272L17.4116 4.32079Z" stroke="#F1F1F1"/>
<path d="M17.4116 4.32079L17.2691 4.19272C16.9203 3.87939 16.4681 3.70605 15.9992 3.70605C15.5304 3.70605 15.0782 3.87938 14.7294 4.1927L17.4116 4.32079ZM17.4116 4.32079H17.4132L26.0705 12.0998C26.2686 12.2779 26.427 12.4957 26.5355 12.739C26.6439 12.9823 26.7 13.2456 26.7 13.512C26.7 13.512 26.7 13.5121 26.7 13.5121V24.8C26.7 25.3039 26.4999 25.7872 26.1436 26.1435C25.7872 26.4998 25.304 26.7 24.8 26.7H21.6C21.0961 26.7 20.6129 26.4998 20.2565 26.1435C19.9002 25.7872 19.7 25.3039 19.7 24.8V18.4C19.7 18.0552 19.5631 17.7245 19.3193 17.4807C19.0755 17.2369 18.7448 17.1 18.4 17.1H13.6C13.2553 17.1 12.9246 17.2369 12.6808 17.4807C12.437 17.7245 12.3 18.0552 12.3 18.4V24.8C12.3 25.3039 12.0999 25.7872 11.7436 26.1435C11.3872 26.4998 10.904 26.7 10.4 26.7H7.20005C6.69614 26.7 6.21287 26.4998 5.85655 26.1435C5.50023 25.7872 5.30005 25.3039 5.30005 24.8V13.5121C5.30005 13.5121 5.30005 13.512 5.30005 13.512C5.30013 13.2456 5.3562 12.9823 5.46464 12.739C5.57307 12.4957 5.73142 12.278 5.92943 12.0999C5.92948 12.0999 5.92953 12.0998 5.92958 12.0998L14.7294 4.19272L17.4116 4.32079Z" stroke="url(#paint0_linear_698_1489)"/>
<defs>
<linearGradient id="paint0_linear_698_1489" x1="7.27747" y1="5.87693" x2="25.9209" y2="23.17" gradientUnits="userSpaceOnUse">
<stop stop-color="#FDA2FF"/>
<stop offset="0.505208" stop-color="#782AD5"/>
<stop offset="1" stop-color="#52B8FF"/>
</linearGradient>
</defs>
</svg>
