<svg width="32" height="32" viewBox="0 0 32 32" fill="none" xmlns="http://www.w3.org/2000/svg">
<path fill-rule="evenodd" clip-rule="evenodd" d="M18.0386 2.86966C17.5453 2.66699 16.9186 2.66699 15.6666 2.66699C14.4146 2.66699 13.7893 2.66699 13.2946 2.86966C12.6379 3.13927 12.1151 3.65868 11.8413 4.31366C11.7159 4.61099 11.6679 4.95899 11.6479 5.46433C11.639 5.83046 11.5369 6.18828 11.3512 6.50395C11.1655 6.81962 10.9023 7.0827 10.5866 7.26833C10.2649 7.44713 9.90332 7.54185 9.5353 7.54372C9.16728 7.54558 8.80474 7.45453 8.48127 7.27899C8.0306 7.04166 7.70393 6.91099 7.38127 6.86833C6.67534 6.77564 5.96136 6.96539 5.3946 7.39633C4.9706 7.71899 4.65727 8.25766 4.03193 9.33366C3.40527 10.4097 3.09327 10.947 3.0226 11.4737C2.92927 12.175 3.12127 12.8843 3.55593 13.4457C3.75327 13.7017 4.03193 13.9163 4.4626 14.1857C5.0986 14.5817 5.5066 15.2563 5.5066 16.0003C5.5066 16.7443 5.0986 17.419 4.46393 17.8137C4.03193 18.0843 3.75327 18.299 3.5546 18.555C3.34004 18.8322 3.18256 19.1493 3.09124 19.4877C2.99993 19.8262 2.9766 20.1794 3.0226 20.527C3.09327 21.0523 3.40527 21.591 4.03193 22.667C4.6586 23.743 4.9706 24.2803 5.3946 24.6043C5.95993 25.035 6.6746 25.2243 7.38127 25.1323C7.70393 25.0897 8.0306 24.959 8.48127 24.7217C8.8049 24.5459 9.16769 24.4547 9.53597 24.4566C9.90425 24.4584 10.2661 24.5533 10.5879 24.7323C11.2359 25.1057 11.6199 25.7923 11.6479 26.5363C11.6679 27.043 11.7159 27.3897 11.8413 27.687C12.1133 28.3403 12.6359 28.8603 13.2946 29.131C13.7879 29.3337 14.4146 29.3337 15.6666 29.3337C16.9186 29.3337 17.5453 29.3337 18.0386 29.131C18.6953 28.8614 19.2181 28.342 19.4919 27.687C19.6173 27.3897 19.6653 27.043 19.6853 26.5363C19.7119 25.7923 20.0973 25.1043 20.7466 24.7323C21.0683 24.5535 21.4299 24.4588 21.7979 24.4569C22.1659 24.4551 22.5285 24.5461 22.8519 24.7217C23.3026 24.959 23.6293 25.0897 23.9519 25.1323C24.6586 25.2257 25.3733 25.035 25.9386 24.6043C26.3626 24.2817 26.6759 23.743 27.3013 22.667C27.9279 21.591 28.2399 21.0537 28.3106 20.527C28.3564 20.1794 28.3329 19.8261 28.2413 19.4876C28.1498 19.1491 27.9921 18.8321 27.7773 18.555C27.5799 18.299 27.3013 18.0843 26.8706 17.815C26.2346 17.419 25.8266 16.7443 25.8266 16.0003C25.8266 15.2563 26.2346 14.5817 26.8693 14.187C27.3013 13.9163 27.5799 13.7017 27.7786 13.4457C27.9932 13.1684 28.1506 12.8514 28.242 12.5129C28.3333 12.1744 28.3566 11.8212 28.3106 11.4737C28.2399 10.9483 27.9279 10.4097 27.3013 9.33366C26.6746 8.25766 26.3626 7.72032 25.9386 7.39633C25.3718 6.96539 24.6579 6.77564 23.9519 6.86833C23.6293 6.91099 23.3026 7.04166 22.8519 7.27899C22.5283 7.45476 22.1655 7.54595 21.7972 7.54408C21.4289 7.54222 21.0671 7.44737 20.7453 7.26833C20.4298 7.08254 20.1669 6.81938 19.9814 6.50373C19.7959 6.18807 19.694 5.83034 19.6853 5.46433C19.6653 4.95766 19.6173 4.61099 19.4919 4.31366C19.3564 3.98931 19.1583 3.69484 18.9089 3.44707C18.6596 3.1993 18.3638 3.0031 18.0386 2.86966ZM15.6666 20.0003C17.8933 20.0003 19.6973 18.2097 19.6973 16.0003C19.6973 13.791 17.8919 12.0003 15.6666 12.0003C13.4399 12.0003 11.6359 13.791 11.6359 16.0003C11.6359 18.2097 13.4413 20.0003 15.6666 20.0003Z" fill="#1E1E1E"/>
<path fill-rule="evenodd" clip-rule="evenodd" d="M18.0386 2.86966C17.5453 2.66699 16.9186 2.66699 15.6666 2.66699C14.4146 2.66699 13.7893 2.66699 13.2946 2.86966C12.6379 3.13927 12.1151 3.65868 11.8413 4.31366C11.7159 4.61099 11.6679 4.95899 11.6479 5.46433C11.639 5.83046 11.5369 6.18828 11.3512 6.50395C11.1655 6.81962 10.9023 7.0827 10.5866 7.26833C10.2649 7.44713 9.90332 7.54185 9.5353 7.54372C9.16728 7.54558 8.80474 7.45453 8.48127 7.27899C8.0306 7.04166 7.70393 6.91099 7.38127 6.86833C6.67534 6.77564 5.96136 6.96539 5.3946 7.39633C4.9706 7.71899 4.65727 8.25766 4.03193 9.33366C3.40527 10.4097 3.09327 10.947 3.0226 11.4737C2.92927 12.175 3.12127 12.8843 3.55593 13.4457C3.75327 13.7017 4.03193 13.9163 4.4626 14.1857C5.0986 14.5817 5.5066 15.2563 5.5066 16.0003C5.5066 16.7443 5.0986 17.419 4.46393 17.8137C4.03193 18.0843 3.75327 18.299 3.5546 18.555C3.34004 18.8322 3.18256 19.1493 3.09124 19.4877C2.99993 19.8262 2.9766 20.1794 3.0226 20.527C3.09327 21.0523 3.40527 21.591 4.03193 22.667C4.6586 23.743 4.9706 24.2803 5.3946 24.6043C5.95993 25.035 6.6746 25.2243 7.38127 25.1323C7.70393 25.0897 8.0306 24.959 8.48127 24.7217C8.8049 24.5459 9.16769 24.4547 9.53597 24.4566C9.90425 24.4584 10.2661 24.5533 10.5879 24.7323C11.2359 25.1057 11.6199 25.7923 11.6479 26.5363C11.6679 27.043 11.7159 27.3897 11.8413 27.687C12.1133 28.3403 12.6359 28.8603 13.2946 29.131C13.7879 29.3337 14.4146 29.3337 15.6666 29.3337C16.9186 29.3337 17.5453 29.3337 18.0386 29.131C18.6953 28.8614 19.2181 28.342 19.4919 27.687C19.6173 27.3897 19.6653 27.043 19.6853 26.5363C19.7119 25.7923 20.0973 25.1043 20.7466 24.7323C21.0683 24.5535 21.4299 24.4588 21.7979 24.4569C22.1659 24.4551 22.5285 24.5461 22.8519 24.7217C23.3026 24.959 23.6293 25.0897 23.9519 25.1323C24.6586 25.2257 25.3733 25.035 25.9386 24.6043C26.3626 24.2817 26.6759 23.743 27.3013 22.667C27.9279 21.591 28.2399 21.0537 28.3106 20.527C28.3564 20.1794 28.3329 19.8261 28.2413 19.4876C28.1498 19.1491 27.9921 18.8321 27.7773 18.555C27.5799 18.299 27.3013 18.0843 26.8706 17.815C26.2346 17.419 25.8266 16.7443 25.8266 16.0003C25.8266 15.2563 26.2346 14.5817 26.8693 14.187C27.3013 13.9163 27.5799 13.7017 27.7786 13.4457C27.9932 13.1684 28.1506 12.8514 28.242 12.5129C28.3333 12.1744 28.3566 11.8212 28.3106 11.4737C28.2399 10.9483 27.9279 10.4097 27.3013 9.33366C26.6746 8.25766 26.3626 7.72032 25.9386 7.39633C25.3718 6.96539 24.6579 6.77564 23.9519 6.86833C23.6293 6.91099 23.3026 7.04166 22.8519 7.27899C22.5283 7.45476 22.1655 7.54595 21.7972 7.54408C21.4289 7.54222 21.0671 7.44737 20.7453 7.26833C20.4298 7.08254 20.1669 6.81938 19.9814 6.50373C19.7959 6.18807 19.694 5.83034 19.6853 5.46433C19.6653 4.95766 19.6173 4.61099 19.4919 4.31366C19.3564 3.98931 19.1583 3.69484 18.9089 3.44707C18.6596 3.1993 18.3638 3.0031 18.0386 2.86966ZM15.6666 20.0003C17.8933 20.0003 19.6973 18.2097 19.6973 16.0003C19.6973 13.791 17.8919 12.0003 15.6666 12.0003C13.4399 12.0003 11.6359 13.791 11.6359 16.0003C11.6359 18.2097 13.4413 20.0003 15.6666 20.0003Z" fill="#F1F1F1"/>
</svg>
