<svg width="24" height="24" viewBox="0 0 24 24" fill="none" xmlns="http://www.w3.org/2000/svg">
<path d="M7.07669 14.125H16.9225C16.0903 16.0301 14.2102 17.375 12 17.375C9.78926 17.375 7.90008 16.0296 7.07669 14.125ZM9.47227 10.4723C9.21441 10.7301 8.86467 10.875 8.5 10.875C8.13533 10.875 7.78559 10.7301 7.52773 10.4723C7.26987 10.2144 7.125 9.86467 7.125 9.5C7.125 9.13533 7.26987 8.78559 7.52773 8.52773C7.78559 8.26987 8.13533 8.125 8.5 8.125C8.86467 8.125 9.21441 8.26987 9.47227 8.52773C9.73013 8.78559 9.875 9.13533 9.875 9.5C9.875 9.86467 9.73013 10.2144 9.47227 10.4723ZM16.4723 10.4723C16.2144 10.7301 15.8647 10.875 15.5 10.875C15.1353 10.875 14.7856 10.7301 14.5277 10.4723C14.2699 10.2144 14.125 9.86467 14.125 9.5C14.125 9.13533 14.2699 8.78559 14.5277 8.52773C14.7856 8.26987 15.1353 8.125 15.5 8.125C15.8647 8.125 16.2144 8.26987 16.4723 8.52773C16.7301 8.78559 16.875 9.13533 16.875 9.5C16.875 9.86467 16.7301 10.2144 16.4723 10.4723ZM6.25476 17.7452C7.77849 19.269 9.84512 20.125 12 20.125C14.1549 20.125 16.2215 19.269 17.7452 17.7452C19.269 16.2215 20.125 14.1549 20.125 12C20.125 9.84512 19.269 7.77849 17.7452 6.25476C16.2215 4.73102 14.1549 3.875 12 3.875C9.84512 3.875 7.77849 4.73102 6.25476 6.25476C4.73102 7.77849 3.875 9.84512 3.875 12C3.875 14.1549 4.73102 16.2215 6.25476 17.7452ZM2.125 12C2.125 6.56879 6.53928 2.125 12 2.125C13.2968 2.125 14.5809 2.38042 15.779 2.87669C16.9771 3.37295 18.0657 4.10034 18.9827 5.01732C19.8997 5.9343 20.627 7.02291 21.1233 8.221C21.6196 9.41909 21.875 10.7032 21.875 12C21.875 14.619 20.8346 17.1308 18.9827 18.9827C17.1308 20.8346 14.619 21.875 12 21.875C10.7032 21.875 9.41909 21.6196 8.221 21.1233C7.02291 20.627 5.9343 19.8997 5.01732 18.9827C3.1654 17.1308 2.125 14.619 2.125 12Z" fill="#F1F1F1" stroke="#1E1E1E" stroke-width="0.25"/>
</svg>
