<svg width="18" height="18" viewBox="0 0 18 18" fill="none" xmlns="http://www.w3.org/2000/svg">
<g clip-path="url(#clip0_680_215)">
<path d="M0.401113 8.86251L0.346932 9L0.401113 9.13749C1.75296 12.5679 5.09023 15 9 15C12.9098 15 16.247 12.5679 17.5989 9.13749L17.6531 9L17.5989 8.86251C16.247 5.43211 12.9098 3 9 3C5.09023 3 1.75296 5.43211 0.401113 8.86251ZM9 12.375C7.13711 12.375 5.625 10.8629 5.625 9C5.625 7.13711 7.13711 5.625 9 5.625C10.8629 5.625 12.375 7.13711 12.375 9C12.375 10.8629 10.8629 12.375 9 12.375ZM9 6.375C7.54789 6.375 6.375 7.54789 6.375 9C6.375 10.4521 7.54789 11.625 9 11.625C10.4521 11.625 11.625 10.4521 11.625 9C11.625 7.54789 10.4521 6.375 9 6.375Z" fill="black"/>
<path d="M0.401113 8.86251L0.346932 9L0.401113 9.13749C1.75296 12.5679 5.09023 15 9 15C12.9098 15 16.247 12.5679 17.5989 9.13749L17.6531 9L17.5989 8.86251C16.247 5.43211 12.9098 3 9 3C5.09023 3 1.75296 5.43211 0.401113 8.86251ZM9 12.375C7.13711 12.375 5.625 10.8629 5.625 9C5.625 7.13711 7.13711 5.625 9 5.625C10.8629 5.625 12.375 7.13711 12.375 9C12.375 10.8629 10.8629 12.375 9 12.375ZM9 6.375C7.54789 6.375 6.375 7.54789 6.375 9C6.375 10.4521 7.54789 11.625 9 11.625C10.4521 11.625 11.625 10.4521 11.625 9C11.625 7.54789 10.4521 6.375 9 6.375Z" fill="url(#paint0_linear_680_215)"/>
<path d="M0.401113 8.86251L0.346932 9L0.401113 9.13749C1.75296 12.5679 5.09023 15 9 15C12.9098 15 16.247 12.5679 17.5989 9.13749L17.6531 9L17.5989 8.86251C16.247 5.43211 12.9098 3 9 3C5.09023 3 1.75296 5.43211 0.401113 8.86251ZM9 12.375C7.13711 12.375 5.625 10.8629 5.625 9C5.625 7.13711 7.13711 5.625 9 5.625C10.8629 5.625 12.375 7.13711 12.375 9C12.375 10.8629 10.8629 12.375 9 12.375ZM9 6.375C7.54789 6.375 6.375 7.54789 6.375 9C6.375 10.4521 7.54789 11.625 9 11.625C10.4521 11.625 11.625 10.4521 11.625 9C11.625 7.54789 10.4521 6.375 9 6.375Z" stroke="#F1F1F1" stroke-width="0.75"/>
</g>
<defs>
<linearGradient id="paint0_linear_680_215" x1="2.57489" y1="4.62729" x2="10.7542" y2="16.5465" gradientUnits="userSpaceOnUse">
<stop stop-color="#FDA2FF"/>
<stop offset="0.505208" stop-color="#782AD5"/>
<stop offset="1" stop-color="#52B8FF"/>
</linearGradient>
<clipPath id="clip0_680_215">
<rect width="18" height="18" fill="white"/>
</clipPath>
</defs>
</svg>
