<svg width="18" height="18" viewBox="0 0 18 18" fill="none" xmlns="http://www.w3.org/2000/svg">
<g clip-path="url(#clip0_698_1474)">
<path d="M11.472 5.625L12.097 2.64959L12.097 2.6496L12.0977 2.64604C12.1181 2.54399 12.1275 2.43662 12.1275 2.3325C12.1275 1.92126 11.9574 1.54207 11.6877 1.27233L11.6864 1.27108L10.8914 0.483581L10.6262 0.220924L10.3623 0.484835L5.42734 5.41984C5.08202 5.76515 4.875 6.23454 4.875 6.75V14.25C4.875 14.7473 5.07254 15.2242 5.42417 15.5758C5.77581 15.9275 6.25272 16.125 6.75 16.125H13.5C14.2764 16.125 14.943 15.6568 15.2254 14.981C15.2257 14.9804 15.2259 14.9798 15.2262 14.9792L17.4897 9.69516L17.4899 9.69523L17.4942 9.68415C17.5774 9.47145 17.625 9.24522 17.625 9V7.5C17.625 7.00272 17.4275 6.52581 17.0758 6.17418C16.7242 5.82254 16.2473 5.625 15.75 5.625H11.472ZM0.375 15.75V16.125H0.75H3.75H4.125V15.75V6.75V6.375H3.75H0.75H0.375V6.75V15.75Z" fill="black"/>
<path d="M11.472 5.625L12.097 2.64959L12.097 2.6496L12.0977 2.64604C12.1181 2.54399 12.1275 2.43662 12.1275 2.3325C12.1275 1.92126 11.9574 1.54207 11.6877 1.27233L11.6864 1.27108L10.8914 0.483581L10.6262 0.220924L10.3623 0.484835L5.42734 5.41984C5.08202 5.76515 4.875 6.23454 4.875 6.75V14.25C4.875 14.7473 5.07254 15.2242 5.42417 15.5758C5.77581 15.9275 6.25272 16.125 6.75 16.125H13.5C14.2764 16.125 14.943 15.6568 15.2254 14.981C15.2257 14.9804 15.2259 14.9798 15.2262 14.9792L17.4897 9.69516L17.4899 9.69523L17.4942 9.68415C17.5774 9.47145 17.625 9.24522 17.625 9V7.5C17.625 7.00272 17.4275 6.52581 17.0758 6.17418C16.7242 5.82254 16.2473 5.625 15.75 5.625H11.472ZM0.375 15.75V16.125H0.75H3.75H4.125V15.75V6.75V6.375H3.75H0.75H0.375V6.75V15.75Z" fill="url(#paint0_linear_698_1474)"/>
<path d="M11.472 5.625L12.097 2.64959L12.097 2.6496L12.0977 2.64604C12.1181 2.54399 12.1275 2.43662 12.1275 2.3325C12.1275 1.92126 11.9574 1.54207 11.6877 1.27233L11.6864 1.27108L10.8914 0.483581L10.6262 0.220924L10.3623 0.484835L5.42734 5.41984C5.08202 5.76515 4.875 6.23454 4.875 6.75V14.25C4.875 14.7473 5.07254 15.2242 5.42417 15.5758C5.77581 15.9275 6.25272 16.125 6.75 16.125H13.5C14.2764 16.125 14.943 15.6568 15.2254 14.981C15.2257 14.9804 15.2259 14.9798 15.2262 14.9792L17.4897 9.69516L17.4899 9.69523L17.4942 9.68415C17.5774 9.47145 17.625 9.24522 17.625 9V7.5C17.625 7.00272 17.4275 6.52581 17.0758 6.17418C16.7242 5.82254 16.2473 5.625 15.75 5.625H11.472ZM0.375 15.75V16.125H0.75H3.75H4.125V15.75V6.75V6.375H3.75H0.75H0.375V6.75V15.75Z" stroke="#F1F1F1" stroke-width="0.75"/>
</g>
<defs>
<linearGradient id="paint0_linear_698_1474" x1="2.57489" y1="2.41972" x2="14.2169" y2="15.1436" gradientUnits="userSpaceOnUse">
<stop stop-color="#FDA2FF"/>
<stop offset="0.505208" stop-color="#782AD5"/>
<stop offset="1" stop-color="#52B8FF"/>
</linearGradient>
<clipPath id="clip0_698_1474">
<rect width="18" height="18" fill="white"/>
</clipPath>
</defs>
</svg>
